<svg width="20" height="21" viewBox="0 0 20 21" fill="none" xmlns="http://www.w3.org/2000/svg">
<path fill-rule="evenodd" clip-rule="evenodd" d="M0 4.02234C0 2.95555 0.421427 1.93245 1.17157 1.17812C1.92172 0.423781 2.93913 0 4 0H16C17.0609 0 18.0783 0.423781 18.8284 1.17812C19.5786 1.93245 20 2.95555 20 4.02234V16.0894C20 17.1561 19.5786 18.1792 18.8284 18.9336C18.0783 19.6879 17.0609 20.1117 16 20.1117H4C2.93913 20.1117 1.92172 19.6879 1.17157 18.9336C0.421427 18.1792 0 17.1561 0 16.0894V4.02234ZM4 2.01117C3.46957 2.01117 2.96086 2.22306 2.58579 2.60023C2.21071 2.97739 2 3.48894 2 4.02234V16.0894C2 16.6228 2.21071 17.1343 2.58579 17.5115C2.96086 17.8886 3.46957 18.1005 4 18.1005H10V11.0614H9C8.73478 11.0614 8.48043 10.9555 8.29289 10.7669C8.10536 10.5783 8 10.3225 8 10.0558C8 9.78915 8.10536 9.53338 8.29289 9.34479C8.48043 9.15621 8.73478 9.05026 9 9.05026H10V7.54189C10 6.60844 10.3687 5.71323 11.0251 5.05319C11.6815 4.39315 12.5717 4.02234 13.5 4.02234H14.1C14.3652 4.02234 14.6196 4.12828 14.8071 4.31687C14.9946 4.50545 15.1 4.76123 15.1 5.02792C15.1 5.29462 14.9946 5.5504 14.8071 5.73898C14.6196 5.92756 14.3652 6.03351 14.1 6.03351H13.5C13.303 6.03351 13.108 6.07252 12.926 6.14833C12.744 6.22413 12.5786 6.33524 12.4393 6.4753C12.3001 6.61537 12.1896 6.78165 12.1142 6.96465C12.0388 7.14766 12 7.3438 12 7.54189V9.05026H14.1C14.3652 9.05026 14.6196 9.15621 14.8071 9.34479C14.9946 9.53338 15.1 9.78915 15.1 10.0558C15.1 10.3225 14.9946 10.5783 14.8071 10.7669C14.6196 10.9555 14.3652 11.0614 14.1 11.0614H12V18.1005H16C16.5304 18.1005 17.0391 17.8886 17.4142 17.5115C17.7893 17.1343 18 16.6228 18 16.0894V4.02234C18 3.48894 17.7893 2.97739 17.4142 2.60023C17.0391 2.22306 16.5304 2.01117 16 2.01117H4Z" fill="black"/>
</svg>
