<svg width="20" height="21" viewBox="0 0 20 21" fill="none" xmlns="http://www.w3.org/2000/svg">
<path fill-rule="evenodd" clip-rule="evenodd" d="M0 4.02234C0 2.95555 0.421427 1.93245 1.17157 1.17812C1.92172 0.423781 2.93913 0 4 0H16C17.0609 0 18.0783 0.423781 18.8284 1.17812C19.5786 1.93245 20 2.95555 20 4.02234V16.0894C20 17.1561 19.5786 18.1792 18.8284 18.9336C18.0783 19.6879 17.0609 20.1117 16 20.1117H4C2.93913 20.1117 1.92172 19.6879 1.17157 18.9336C0.421427 18.1792 0 17.1561 0 16.0894V4.02234ZM4 2.01117C3.46957 2.01117 2.96086 2.22306 2.58579 2.60023C2.21071 2.97739 2 3.48894 2 4.02234V16.0894C2 16.6228 2.21071 17.1343 2.58579 17.5115C2.96086 17.8886 3.46957 18.1005 4 18.1005H16C16.5304 18.1005 17.0391 17.8886 17.4142 17.5115C17.7893 17.1343 18 16.6228 18 16.0894V4.02234C18 3.48894 17.7893 2.97739 17.4142 2.60023C17.0391 2.22306 16.5304 2.01117 16 2.01117H4ZM10 7.03909C9.20435 7.03909 8.44129 7.35693 7.87868 7.92268C7.31607 8.48843 7 9.25575 7 10.0558C7 10.8559 7.31607 11.6233 7.87868 12.189C8.44129 12.7548 9.20435 13.0726 10 13.0726C10.7956 13.0726 11.5587 12.7548 12.1213 12.189C12.6839 11.6233 13 10.8559 13 10.0558C13 9.25575 12.6839 8.48843 12.1213 7.92268C11.5587 7.35693 10.7956 7.03909 10 7.03909ZM5 10.0558C5 8.72236 5.52678 7.44349 6.46447 6.50057C7.40215 5.55765 8.67392 5.02792 10 5.02792C11.3261 5.02792 12.5979 5.55765 13.5355 6.50057C14.4732 7.44349 15 8.72236 15 10.0558C15 11.3893 14.4732 12.6682 13.5355 13.6111C12.5979 14.554 11.3261 15.0838 10 15.0838C8.67392 15.0838 7.40215 14.554 6.46447 13.6111C5.52678 12.6682 5 11.3893 5 10.0558ZM15.5 6.03351C15.8978 6.03351 16.2794 5.87459 16.5607 5.59171C16.842 5.30884 17 4.92518 17 4.52513C17 4.12508 16.842 3.74142 16.5607 3.45855C16.2794 3.17567 15.8978 3.01675 15.5 3.01675C15.1022 3.01675 14.7206 3.17567 14.4393 3.45855C14.158 3.74142 14 4.12508 14 4.52513C14 4.92518 14.158 5.30884 14.4393 5.59171C14.7206 5.87459 15.1022 6.03351 15.5 6.03351Z" fill="black"/>
</svg>
