<svg width="20" height="21" viewBox="0 0 20 21" fill="none" xmlns="http://www.w3.org/2000/svg">
<path fill-rule="evenodd" clip-rule="evenodd" d="M4 0C2.93913 0 1.92172 0.423781 1.17157 1.17812C0.421427 1.93245 0 2.95555 0 4.02234V16.0894C0 17.1561 0.421427 18.1792 1.17157 18.9336C1.92172 19.6879 2.93913 20.1117 4 20.1117H16C17.0609 20.1117 18.0783 19.6879 18.8284 18.9336C19.5786 18.1792 20 17.1561 20 16.0894V4.02234C20 2.95555 19.5786 1.93245 18.8284 1.17812C18.0783 0.423781 17.0609 0 16 0H4ZM2 4.02234C2 3.48894 2.21071 2.97739 2.58579 2.60023C2.96086 2.22306 3.46957 2.01117 4 2.01117H16C16.5304 2.01117 17.0391 2.22306 17.4142 2.60023C17.7893 2.97739 18 3.48894 18 4.02234V16.0894C18 16.6228 17.7893 17.1343 17.4142 17.5115C17.0391 17.8886 16.5304 18.1005 16 18.1005H4C3.46957 18.1005 2.96086 17.8886 2.58579 17.5115C2.21071 17.1343 2 16.6228 2 16.0894V4.02234ZM7 9.05026C7 8.78356 6.89464 8.52779 6.70711 8.33921C6.51957 8.15062 6.26522 8.04468 6 8.04468C5.73478 8.04468 5.48043 8.15062 5.29289 8.33921C5.10536 8.52779 5 8.78356 5 9.05026V15.0838C5 15.3505 5.10536 15.6062 5.29289 15.7948C5.48043 15.9834 5.73478 16.0894 6 16.0894C6.26522 16.0894 6.51957 15.9834 6.70711 15.7948C6.89464 15.6062 7 15.3505 7 15.0838V9.05026ZM7.5 5.53072C7.5 5.93076 7.34196 6.31442 7.06066 6.5973C6.77936 6.88018 6.39782 7.03909 6 7.03909C5.60218 7.03909 5.22064 6.88018 4.93934 6.5973C4.65804 6.31442 4.5 5.93076 4.5 5.53072C4.5 5.13067 4.65804 4.74701 4.93934 4.46413C5.22064 4.18126 5.60218 4.02234 6 4.02234C6.39782 4.02234 6.77936 4.18126 7.06066 4.46413C7.34196 4.74701 7.5 5.13067 7.5 5.53072ZM10 8.04468C10.34 8.04468 10.64 8.21563 10.82 8.47507C11.3354 8.1926 11.913 8.04463 12.5 8.04468C14.66 8.04468 16 9.98143 16 11.6356V15.0838C16 15.3505 15.8946 15.6062 15.7071 15.7948C15.5196 15.9834 15.2652 16.0894 15 16.0894C14.7348 16.0894 14.4804 15.9834 14.2929 15.7948C14.1054 15.6062 14 15.3505 14 15.0838V11.6346C14 10.8623 13.34 10.0548 12.5 10.0548C11.976 10.0548 11.397 10.3414 11 11.0232V15.0838C11 15.3505 10.8946 15.6062 10.7071 15.7948C10.5196 15.9834 10.2652 16.0894 10 16.0894C9.73478 16.0894 9.48043 15.9834 9.29289 15.7948C9.10536 15.6062 9 15.3505 9 15.0838V9.05026C9 8.78356 9.10536 8.52779 9.29289 8.33921C9.48043 8.15062 9.73478 8.04468 10 8.04468Z" fill="black"/>
</svg>
