<svg width="68" height="68" viewBox="0 0 68 68" fill="none" xmlns="http://www.w3.org/2000/svg">
<circle cx="34" cy="34" r="33" fill="white" stroke="black" stroke-width="2"/>
<path d="M54 24.7143V21.7857H50.9235C50.7347 20.8691 50.3708 19.9975 49.8517 19.2188L52.0335 17.037L49.963 14.9665L47.7812 17.1483C47.0025 16.6292 46.1309 16.2653 45.2143 16.0765V13H42.2857V16.0765C41.3691 16.2653 40.4975 16.6292 39.7188 17.1483L37.537 14.9665L35.4665 17.037L37.6483 19.2188C37.1292 19.9975 36.7653 20.8691 36.5765 21.7857H33.5V24.7143H36.5765C36.7653 25.6309 37.1292 26.5025 37.6483 27.2812L35.4665 29.463L37.537 31.5335L39.7188 29.3517C40.4975 29.8708 41.3691 30.2347 42.2857 30.4235V33.5H45.2143V30.4235C46.1309 30.2347 47.0025 29.8708 47.7812 29.3517L49.963 31.5335L52.0335 29.463L49.8517 27.2812C50.3708 26.5025 50.7347 25.6309 50.9235 24.7143H54ZM43.75 27.6429C42.8812 27.6429 42.0319 27.3852 41.3095 26.9025C40.5871 26.4198 40.024 25.7338 39.6915 24.9311C39.359 24.1284 39.2721 23.2451 39.4416 22.393C39.611 21.5409 40.0294 20.7581 40.6438 20.1438C41.2581 19.5294 42.0409 19.1111 42.893 18.9416C43.7451 18.7721 44.6284 18.859 45.4311 19.1915C46.2338 19.524 46.9198 20.0871 47.4025 20.8095C47.8852 21.5319 48.1429 22.3812 48.1429 23.25C48.1417 24.4147 47.6785 25.5314 46.8549 26.3549C46.0314 27.1785 44.9147 27.6417 43.75 27.6429Z" fill="black"/>
<path d="M33.5 54H30.5714V46.6786C30.5703 45.5139 30.1071 44.3972 29.2835 43.5737C28.4599 42.7501 27.3433 42.2869 26.1786 42.2857H20.3214C19.1567 42.2869 18.0401 42.7501 17.2165 43.5737C16.3929 44.3972 15.9297 45.5139 15.9286 46.6786V54H13V46.6786C13.0023 44.7376 13.7744 42.8767 15.147 41.5041C16.5195 40.1316 18.3804 39.3595 20.3214 39.3572H26.1786C28.1196 39.3595 29.9805 40.1316 31.353 41.5041C32.7256 42.8767 33.4977 44.7376 33.5 46.6786V54Z" fill="black"/>
<path d="M23.2501 24.7143C24.119 24.7143 24.9683 24.9719 25.6907 25.4546C26.4131 25.9373 26.9761 26.6234 27.3086 27.4261C27.6411 28.2288 27.7281 29.112 27.5586 29.9641C27.3891 30.8163 26.9707 31.599 26.3564 32.2134C25.742 32.8277 24.9593 33.2461 24.1071 33.4156C23.255 33.5851 22.3718 33.4981 21.5691 33.1656C20.7664 32.8331 20.0803 32.2701 19.5976 31.5477C19.1149 30.8253 18.8573 29.976 18.8573 29.1071C18.8573 27.9421 19.3201 26.8247 20.1439 26.0009C20.9677 25.1771 22.0851 24.7143 23.2501 24.7143ZM23.2501 21.7857C21.8021 21.7857 20.3866 22.2151 19.1826 23.0196C17.9786 23.8241 17.0402 24.9675 16.486 26.3053C15.9319 27.6432 15.7869 29.1153 16.0694 30.5355C16.3519 31.9557 17.0492 33.2602 18.0731 34.2842C19.097 35.3081 20.4016 36.0054 21.8218 36.2879C23.242 36.5704 24.7141 36.4254 26.0519 35.8713C27.3897 35.3171 28.5332 34.3787 29.3377 33.1747C30.1422 31.9707 30.5716 30.5552 30.5716 29.1071C30.5716 28.1457 30.3822 27.1936 30.0143 26.3053C29.6463 25.4171 29.107 24.61 28.4272 23.9301C27.7473 23.2502 26.9402 22.711 26.0519 22.343C25.1637 21.9751 24.2116 21.7857 23.2501 21.7857Z" fill="black"/>
</svg>
