<svg width="68" height="68" viewBox="0 0 68 68" fill="none" xmlns="http://www.w3.org/2000/svg">
<circle cx="34" cy="34" r="33" fill="white" stroke="#E09400" stroke-width="2"/>
<path d="M37.9443 52.1111C37.9443 51.5588 38.3921 51.1111 38.9443 51.1111H50.3147C50.867 51.1111 51.3147 51.5588 51.3147 52.1111V53.4537C51.3147 54.006 50.867 54.4537 50.3147 54.4537H38.9443C38.3921 54.4537 37.9443 54.006 37.9443 53.4537V52.1111Z" fill="#E09400"/>
<path d="M37.9443 45.4259C37.9443 44.8737 38.3921 44.4259 38.9443 44.4259H56.9999C57.5522 44.4259 57.9999 44.8736 57.9999 45.4259V46.7685C57.9999 47.3208 57.5522 47.7685 56.9999 47.7685H38.9443C38.3921 47.7685 37.9443 47.3208 37.9443 46.7685V45.4259Z" fill="#E09400"/>
<path d="M37.9443 38.7408C37.9443 38.1885 38.3921 37.7408 38.9443 37.7408H56.9999C57.5522 37.7408 57.9999 38.1885 57.9999 38.7408V40.0833C57.9999 40.6356 57.5522 41.0833 56.9999 41.0833H38.9443C38.3921 41.0833 37.9443 40.6356 37.9443 40.0833V38.7408Z" fill="#E09400"/>
<path d="M43.2447 26.5556C42.735 26.4815 42.4802 26.4445 42.2805 26.2994C42.0808 26.1543 41.9668 25.9234 41.7389 25.4615L36.3949 14.6338C35.6137 13.0509 35.2231 12.2595 34.6015 12.2595C33.9799 12.2595 33.5893 13.0509 32.808 14.6338L27.4641 25.4615C27.2362 25.9233 27.1222 26.1543 26.9225 26.2994C26.7228 26.4444 26.4679 26.4815 25.9583 26.5555L14.01 28.2918C12.2632 28.5456 11.3899 28.6726 11.1978 29.2637C11.0057 29.8549 11.6376 30.471 12.9015 31.7031L21.5478 40.1321C21.9166 40.4916 22.1011 40.6714 22.1773 40.9062C22.2536 41.1409 22.21 41.3948 22.1229 41.9024L20.0813 53.8023C19.7828 55.5421 19.6335 56.412 20.1364 56.7774C20.6393 57.1428 21.4205 56.7321 22.983 55.9108L30.3651 52.0305C30.7134 51.8475 30.8875 51.7559 31.0094 51.6174C31.0883 51.5279 31.1505 51.4249 31.193 51.3135C31.2589 51.1411 31.2589 50.9444 31.2589 50.5509C31.2589 49.5702 31.2589 49.0798 31.0302 48.8027C30.8856 48.6275 30.6857 48.5067 30.4633 48.4603C30.1116 48.3868 29.6775 48.615 28.8095 49.0714L27.4234 49.8002C25.861 50.6217 25.0798 51.0324 24.5769 50.6671C24.074 50.3017 24.2232 49.4318 24.5214 47.692L25.5949 41.431L25.7143 40.7352C25.8015 40.227 25.8451 39.973 25.7687 39.738C25.6923 39.5031 25.5076 39.3233 25.1382 38.9637L24.6339 38.4728L20.0841 34.0363C18.8205 32.8041 18.1887 32.188 18.3808 31.5969C18.5729 31.0058 19.4463 30.8789 21.1929 30.6252L27.4801 29.7118L28.1782 29.6105C28.6877 29.5365 28.9424 29.4995 29.1421 29.3546C29.3417 29.2096 29.4558 28.9788 29.6838 28.5173L29.9971 27.8834L32.808 22.1872C33.5892 20.604 33.9798 19.8124 34.6015 19.8124C35.2232 19.8124 35.6138 20.604 36.395 22.1872L39.2059 27.8834L39.5191 28.5173C39.7472 28.9788 39.8612 29.2096 40.0609 29.3546C40.2606 29.4995 40.5153 29.5365 41.0248 29.6105L41.7229 29.7118L52.5231 31.2839C53.1459 31.3746 53.4573 31.4199 53.7082 31.3185C53.8684 31.2538 54.009 31.1487 54.1165 31.0135C54.2848 30.8016 54.3296 30.4901 54.4193 29.8672C54.5086 29.246 54.5533 28.9354 54.452 28.6851C54.3873 28.5253 54.2824 28.385 54.1475 28.2777C53.9361 28.1096 53.6256 28.0644 53.0046 27.9742L43.2447 26.5556Z" fill="#E09400"/>
</svg>
