<svg width="21" height="18" viewBox="0 0 21 18" fill="none" xmlns="http://www.w3.org/2000/svg">
<path fill-rule="evenodd" clip-rule="evenodd" d="M13.3187 2.01132C12.8618 2.01113 12.4106 2.11293 11.9977 2.30939C11.5847 2.50584 11.2203 2.79205 10.9307 3.14734C10.6411 3.50263 10.4335 3.91815 10.323 4.3639C10.2125 4.80965 10.2018 5.27451 10.2917 5.72493C10.3226 5.88099 10.3163 6.04221 10.2732 6.19533C10.2301 6.34845 10.1515 6.4891 10.0438 6.60572C9.93612 6.72234 9.80245 6.8116 9.6538 6.86616C9.50513 6.92072 9.34572 6.93902 9.18866 6.91955C7.03839 6.65394 5.01139 5.7651 3.35466 4.36136C3.38566 4.96672 3.59466 5.61029 4.04766 6.28403L4.72666 7.29363L3.61166 7.77128L3.39666 7.86379C3.55666 8.04782 3.74866 8.23586 3.96366 8.42189C4.25108 8.66927 4.55513 8.8964 4.87366 9.10166L4.88466 9.1087H4.88566L6.43366 10.0529L4.81366 10.8675C4.73366 10.9077 4.65366 10.9439 4.57366 10.9761C4.922 11.2671 5.30575 11.5125 5.71566 11.7061L7.10566 12.3668L5.94166 13.3764C5.30666 13.9274 4.66766 14.3387 3.83866 14.5559C5.1101 15.237 6.5291 15.5917 7.96966 15.5887C12.7757 15.5887 16.6457 11.7323 16.6457 7.00704V6.48414L17.0707 6.18347C17.7346 5.71487 18.2036 5.08135 18.5396 4.35633H16.3797L16.1077 3.78315C15.8572 3.25287 15.4623 2.80492 14.9688 2.49129C14.4753 2.17766 13.9034 2.01123 13.3197 2.01132H13.3187ZM2.03866 9.35205C1.9443 9.46073 1.87429 9.58855 1.8334 9.72683C1.79251 9.86512 1.78168 10.0106 1.80166 10.1535C1.91466 10.959 2.39366 11.6528 2.92366 12.1828C3.06766 12.3266 3.22166 12.4643 3.38366 12.5961L3.30866 12.6162C2.82766 12.7368 2.17866 12.762 1.09766 12.6564C0.893523 12.6362 0.68816 12.6797 0.509419 12.7809C0.330677 12.8821 0.187204 13.0361 0.0984527 13.2221C0.00970112 13.408 -0.0200355 13.6169 0.0132745 13.8205C0.0465846 14.024 0.14133 14.2123 0.284665 14.3598C1.28544 15.3885 2.48096 16.2051 3.80068 16.7616C5.12041 17.3181 6.53761 17.6031 7.96866 17.5998C13.6817 17.5998 18.3677 13.1391 18.6327 7.50983C19.9226 6.42079 20.5676 4.9456 20.9156 3.60516C20.9543 3.45639 20.9586 3.30067 20.928 3.14999C20.8975 2.99931 20.833 2.85767 20.7395 2.73598C20.646 2.61429 20.526 2.51578 20.3888 2.44803C20.2515 2.38027 20.1006 2.34509 19.9476 2.34517H17.5947C17.0191 1.4465 16.178 0.751767 15.1895 0.358577C14.2011 -0.0346117 13.115 -0.106488 12.0838 0.153048C11.0526 0.412584 10.1283 0.990487 9.44054 1.80555C8.75283 2.62062 8.33636 3.63187 8.24966 4.69722C6.40632 4.21469 4.75699 3.16955 3.52866 1.70562C3.41988 1.57628 3.28037 1.47668 3.12308 1.41604C2.96579 1.35541 2.79582 1.33571 2.62894 1.35878C2.46205 1.38186 2.30367 1.44694 2.16849 1.54801C2.0333 1.64908 1.9257 1.78285 1.85566 1.9369C1.24966 3.26628 1.13366 4.79879 1.80966 6.35744L1.57566 6.45799C1.35174 6.55394 1.1703 6.72873 1.06537 6.94958C0.960432 7.17043 0.939205 7.42219 1.00566 7.65765C1.19166 8.31329 1.60966 8.8925 2.03766 9.35205H2.03866Z" fill="black"/>
</svg>
