<svg width="52" height="52" viewBox="0 0 52 52" fill="none" xmlns="http://www.w3.org/2000/svg">
<path d="M26 11.5C24.2076 11.5 22.4555 12.0315 20.9652 13.0273C19.4748 14.0231 18.3133 15.4385 17.6273 17.0944C16.9414 18.7504 16.762 20.5726 17.1116 22.3305C17.4613 24.0885 18.3244 25.7032 19.5919 26.9707C20.8593 28.2381 22.474 29.1012 24.232 29.4509C25.99 29.8005 27.8121 29.6211 29.4681 28.9352C31.124 28.2492 32.5394 27.0877 33.5352 25.5974C34.531 24.107 35.0625 22.3549 35.0625 20.5625C35.0625 18.159 34.1077 15.8539 32.4082 14.1543C30.7086 12.4548 28.4035 11.5 26 11.5ZM26 26C24.9246 26 23.8733 25.6811 22.9791 25.0836C22.0849 24.4861 21.388 23.6369 20.9764 22.6433C20.5649 21.6498 20.4572 20.5565 20.667 19.5017C20.8768 18.4469 21.3947 17.4781 22.1551 16.7176C22.9156 15.9572 23.8844 15.4393 24.9392 15.2295C25.994 15.0197 27.0873 15.1274 28.0808 15.5389C29.0744 15.9505 29.9236 16.6474 30.5211 17.5416C31.1186 18.4358 31.4375 19.4871 31.4375 20.5625C31.4361 22.0042 30.8627 23.3864 29.8433 24.4058C28.8239 25.4252 27.4417 25.9986 26 26Z" fill="black"/>
<path d="M26 0.625C20.9813 0.625 16.0753 2.11322 11.9024 4.90146C7.72952 7.6897 4.47714 11.6527 2.55657 16.2894C0.635995 20.9261 0.133485 26.0281 1.11258 30.9504C2.09168 35.8727 4.50842 40.3941 8.05718 43.9428C11.6059 47.4916 16.1273 49.9083 21.0496 50.8874C25.9719 51.8665 31.0739 51.364 35.7106 49.4434C40.3473 47.5229 44.3103 44.2705 47.0986 40.0976C49.8868 35.9247 51.375 31.0187 51.375 26C51.3673 19.2725 48.6914 12.8227 43.9344 8.06564C39.1773 3.30857 32.7275 0.632675 26 0.625V0.625ZM15.125 44.8083V42.3125C15.1265 40.8708 15.6998 39.4886 16.7192 38.4692C17.7386 37.4498 19.1208 36.8764 20.5625 36.875H31.4375C32.8792 36.8764 34.2614 37.4498 35.2808 38.4692C36.3002 39.4886 36.8736 40.8708 36.875 42.3125V44.8083C33.5748 46.7354 29.8217 47.7509 26 47.7509C22.1783 47.7509 18.4253 46.7354 15.125 44.8083V44.8083ZM40.4855 42.1784C40.4494 39.801 39.4808 37.5329 37.7883 35.8629C36.0959 34.1928 33.8152 33.2545 31.4375 33.25H20.5625C18.1848 33.2545 15.9041 34.1928 14.2117 35.8629C12.5193 37.5329 11.5506 39.801 11.5145 42.1784C8.22766 39.2435 5.90977 35.3795 4.86777 31.098C3.82578 26.8165 4.10882 22.3194 5.67942 18.2024C7.25002 14.0853 10.0341 10.5424 13.663 8.04278C17.2919 5.54316 21.5944 4.20473 26.0009 4.20473C30.4074 4.20473 34.7099 5.54316 38.3388 8.04278C41.9677 10.5424 44.7518 14.0853 46.3224 18.2024C47.893 22.3194 48.1761 26.8165 47.1341 31.098C46.0921 35.3795 43.7742 39.2435 40.4873 42.1784H40.4855Z" fill="black"/>
</svg>
