<svg width="22" height="22" viewBox="0 0 22 22" fill="none" xmlns="http://www.w3.org/2000/svg">
<path fill-rule="evenodd" clip-rule="evenodd" d="M2.50042 10.5586C2.50042 8.86812 2.99893 7.21555 3.93293 5.80993C4.86692 4.4043 6.19444 3.30875 7.74761 2.66181C9.30078 2.01487 11.0099 1.8456 12.6587 2.17541C14.3075 2.50521 15.8221 3.31928 17.0108 4.51467C18.1996 5.71006 19.0091 7.23307 19.3371 8.89112C19.6651 10.5492 19.4967 12.2678 18.8534 13.8296C18.2101 15.3915 17.1206 16.7264 15.7228 17.6656C14.325 18.6048 12.6816 19.1061 11.0004 19.1061C9.39227 19.109 7.81665 18.6506 6.45842 17.7848C6.3376 17.7079 6.2018 17.658 6.06018 17.6384C5.91855 17.6188 5.77439 17.63 5.63742 17.6712L2.75742 18.535L3.84242 15.9838C3.90548 15.8353 3.93205 15.6736 3.91986 15.5126C3.90768 15.3516 3.85711 15.1959 3.77242 15.0586C2.93835 13.7077 2.49767 12.1487 2.50042 10.5586ZM11.0004 0C5.20142 0 0.500417 4.72726 0.500417 10.5586C0.500417 12.4069 0.973418 14.1466 1.80542 15.66L0.0804172 19.7165C0.00575691 19.8922 -0.0175686 20.0857 0.0131725 20.2743C0.0439136 20.4629 0.127449 20.6387 0.253994 20.7813C0.38054 20.9238 0.544858 21.0272 0.727703 21.0792C0.910549 21.1312 1.10435 21.1298 1.28642 21.0751L5.78642 19.7256C7.37345 20.6401 9.17128 21.12 11.0004 21.1173C16.7994 21.1173 21.5004 16.39 21.5004 10.5586C21.5004 4.72726 16.7994 0 11.0004 0ZM13.2934 12.7528L11.9784 13.684C11.2539 13.2648 10.5886 12.7497 10.0004 12.1525C9.36896 11.5184 8.82296 10.8037 8.37642 10.0267L9.21142 9.31374C9.38541 9.16529 9.50369 8.96148 9.54661 8.73613C9.58954 8.51078 9.55454 8.27744 9.44742 8.07485L8.38342 6.06368C8.31262 5.93012 8.21274 5.81434 8.09124 5.725C7.96974 5.63566 7.82975 5.57505 7.68171 5.54769C7.53367 5.52034 7.3814 5.52694 7.23625 5.56701C7.0911 5.60707 6.95682 5.67957 6.84342 5.7791L6.52742 6.05564C5.76842 6.72133 5.31942 7.81541 5.69142 8.92357C6.28993 10.6764 7.28033 12.2678 8.58642 13.5754C10.3994 15.3985 12.2414 16.1165 13.3194 16.3961C14.1874 16.6203 15.0084 16.3197 15.5874 15.845L16.1784 15.3603C16.303 15.2581 16.4013 15.1273 16.4649 14.9788C16.5285 14.8303 16.5555 14.6686 16.5438 14.5073C16.532 14.3461 16.4817 14.1901 16.3972 14.0526C16.3128 13.915 16.1965 13.8 16.0584 13.7172L14.3804 12.7116C14.2145 12.612 14.0234 12.563 13.8304 12.5703C13.6373 12.5776 13.4504 12.641 13.2924 12.7528H13.2934Z" fill="black"/>
</svg>
